<?xml version="1.0" encoding="UTF-8"?><svg id="a" xmlns="http://www.w3.org/2000/svg" viewBox="0 0 37 38"><polygon points="19 11 19 14 8 14 8 15 7 15 7 20 6 20 6 25 5 25 5 30 4 30 4 9 17 9 17 10 18 10 18 11 19 11" style="fill:#fff; stroke-width:0px;"/><rect x="4" y="8" width="13" height="1" style="stroke-width:0px;"/><rect x="17" y="9" width="1" height="1" style="stroke-width:0px;"/><rect x="18" y="10" width="1" height="1" style="stroke-width:0px;"/><rect x="4" y="30" width="1" height="1" style="stroke-width:0px;"/><rect x="5" y="25" width="1" height="5" style="stroke-width:0px;"/><rect x="6" y="20" width="1" height="5" style="stroke-width:0px;"/><rect x="7" y="15" width="1" height="5" style="stroke-width:0px;"/><rect x="28" y="31" width="1" height="1" style="stroke-width:0px;"/><polygon points="31 16 31 21 30 21 30 26 29 26 29 31 28 31 28 32 4 32 4 31 5 31 5 30 6 30 6 25 7 25 7 20 8 20 8 15 30 15 30 16 31 16" style="fill:#fff; stroke-width:0px;"/><rect x="29" y="26" width="1" height="5" style="stroke-width:0px;"/><rect x="17" y="9" width="1" height="1" style="stroke-width:0px;"/><rect x="18" y="10" width="1" height="1" style="stroke-width:0px;"/><polygon points="30 14 30 15 8 15 8 14 19 14 19 11 20 11 20 14 30 14" style="stroke-width:0px;"/><rect x="28" y="31" width="1" height="1" style="stroke-width:0px;"/><rect x="4" y="30" width="1" height="1" style="stroke-width:0px;"/><rect x="3" y="9" width="1" height="23" style="stroke-width:0px;"/><rect x="29" y="26" width="1" height="5" style="stroke-width:0px;"/><rect x="4" y="32" width="24" height="1" style="stroke-width:0px;"/><rect x="4" y="8" width="13" height="1" style="stroke-width:0px;"/><rect x="29" y="26" width="1" height="5" style="stroke-width:0px;"/><rect x="30" y="21" width="1" height="5" style="stroke-width:0px;"/><rect x="31" y="16" width="1" height="5" style="stroke-width:0px;"/><rect x="5" y="25" width="1" height="5" style="stroke-width:0px;"/><rect x="6" y="20" width="1" height="5" style="stroke-width:0px;"/><rect x="7" y="15" width="1" height="5" style="stroke-width:0px;"/><rect x="30" y="15" width="1" height="1" style="stroke-width:0px;"/></svg>