<?xml version="1.0" encoding="UTF-8"?><svg id="a" xmlns="http://www.w3.org/2000/svg" viewBox="0 0 37 38"><polygon points="19 11 19 12 4 12 4 9 17 9 17 10 18 10 18 11 19 11" style="fill:#fff; stroke-width:0px;"/><rect x="4" y="8" width="13" height="1" style="fill:#fff; stroke-width:0px;"/><rect x="17" y="9" width="1" height="1" style="fill:#fff; stroke-width:0px;"/><rect x="18" y="10" width="1" height="1" style="fill:#fff; stroke-width:0px;"/><rect x="19" y="11" width="1" height="1" style="fill:#fff; stroke-width:0px;"/><rect x="19" y="11" width="1" height="1" style="fill:#fff; stroke-width:0px;"/><polygon points="29 14 29 31 28 31 28 32 4 32 4 13 28 13 28 14 29 14" style="fill:#fff; stroke-width:0px;"/><rect x="28" y="13" width="1" height="1" style="fill:#fff; stroke-width:0px;"/><rect x="28" y="31" width="1" height="1" style="fill:#fff; stroke-width:0px;"/><rect x="29" y="14" width="1" height="17" style="fill:#fff; stroke-width:0px;"/><rect x="17" y="9" width="1" height="1" style="stroke-width:0px;"/><rect x="18" y="10" width="1" height="1" style="stroke-width:0px;"/><rect x="19" y="11" width="1" height="1" style="stroke-width:0px;"/><rect x="28" y="31" width="1" height="1" style="stroke-width:0px;"/><polygon points="28 12 28 13 4 13 4 32 3 32 3 9 4 9 4 12 28 12" style="stroke-width:0px;"/><rect x="29" y="14" width="1" height="17" style="stroke-width:0px;"/><rect x="4" y="32" width="24" height="1" style="stroke-width:0px;"/><rect x="28" y="13" width="1" height="1" style="stroke-width:0px;"/><rect x="4" y="8" width="13" height="1" style="stroke-width:0px;"/></svg>