<?xml version="1.0" encoding="UTF-8"?><svg id="a" xmlns="http://www.w3.org/2000/svg" viewBox="0 0 37 38"><polygon points="20 9 20 10 4 10 4 6 17 6 17 7 18 7 18 8 19 8 19 9 20 9" style="fill:#fff; stroke-width:0px;"/><rect x="4" y="5" width="13" height="1" style="fill:#fff; stroke-width:0px;"/><rect x="17" y="6" width="1" height="1" style="fill:#fff; stroke-width:0px;"/><rect x="18" y="7" width="1" height="1" style="fill:#fff; stroke-width:0px;"/><rect x="19" y="8" width="1" height="1" style="fill:#fff; stroke-width:0px;"/><rect x="20" y="9" width="1" height="1" style="fill:#fff; stroke-width:0px;"/><polygon points="29 12 29 31 28 31 28 32 4 32 4 11 28 11 28 12 29 12" style="fill:#fff; stroke-width:0px;"/><rect x="28" y="11" width="1" height="1" style="fill:#fff; stroke-width:0px;"/><rect x="28" y="31" width="1" height="1" style="fill:#fff; stroke-width:0px;"/><rect x="29" y="12" width="1" height="19" style="fill:#fff; stroke-width:0px;"/><rect x="3" y="6" width="1" height="4" style="stroke-width:0px;"/><rect x="17" y="6" width="1" height="1" style="stroke-width:0px;"/><rect x="18" y="7" width="1" height="1" style="stroke-width:0px;"/><rect x="19" y="8" width="1" height="1" style="stroke-width:0px;"/><rect x="20" y="9" width="1" height="1" style="stroke-width:0px;"/><rect x="28" y="31" width="1" height="1" style="stroke-width:0px;"/><polygon points="28 10 28 11 4 11 4 32 3 32 3 10 28 10" style="stroke-width:0px;"/><rect x="29" y="12" width="1" height="19" style="stroke-width:0px;"/><rect x="4" y="32" width="24" height="1" style="stroke-width:0px;"/><rect x="28" y="11" width="1" height="1" style="stroke-width:0px;"/><rect x="4" y="5" width="13" height="1" style="stroke-width:0px;"/></svg>