<?xml version="1.0" encoding="UTF-8"?><svg id="a" xmlns="http://www.w3.org/2000/svg" viewBox="0 0 37 38"><polygon points="18.63 2.99 29.72 22.42 16.54 29.95 12.97 23.7 12.28 24.1 15.84 30.34 14.46 31.14 3.37 11.71 6.84 9.73 9.61 14.58 10.3 14.19 7.53 9.33 15.86 4.58 18.63 9.44 19.32 9.04 16.55 4.18 18.63 2.99" style="fill:#fff; stroke-width:0px;"/><path d="M16.55,4.18l.38.67,1.42-.81,10.32,18.08-12.52,7.14.38.67,13.18-7.53L18.63,2.99l-2.08,1.19ZM15.86,4.58l-8.33,4.75.38.67,8.33-4.75-.38-.67ZM4.42,12l2.8-1.6-.38-.67-3.47,1.98,11.09,19.43,1.39-.79-.38-.67-.72.41L4.42,12Z" style="fill:#fff; stroke-width:0px;"/><polygon points="18.33 4.08 29.03 22.82 16.54 29.95 12.97 23.7 12.28 24.1 15.84 30.34 13.76 31.53 3.07 12.8 7.23 10.42 9.61 14.58 10.3 14.19 7.93 10.03 16.25 5.27 18.63 9.44 19.32 9.04 16.95 4.88 18.33 4.08" style="fill:#fff; stroke-width:0px;"/><path d="M18.86,6.55l5.15,9.02.67-.38-5.15-9.02-.67.38ZM16.95,4.88l.37.65.72-.41,9.96,17.44-11.82,6.75.37.65,12.49-7.13L18.33,4.08l-1.39.79ZM16.62,5.92l-.37-.65-8.33,4.75.37.65,8.33-4.75ZM14.06,30.51L4.1,13.06l3.5-2-.37-.65-4.16,2.38,10.69,18.74,2.08-1.19-.37-.65-1.42.81Z" style="fill:#fff; stroke-width:0px;"/><polygon points="24.08 4.48 32.8 19.75 30.71 20.94 27.15 14.69 26.46 15.09 30.02 21.33 29.33 21.73 20.61 6.46 24.08 4.48" style="fill:#fff; stroke-width:0px;"/><path d="M20.61,6.46l8.71,15.27.69-.4-8.33-14.6,2.08-1.19,7.95,13.93-1.39.79.38.67,2.08-1.19-8.71-15.27-3.47,1.98Z" style="fill:#fff; stroke-width:0px;"/><polygon points="23.78 5.57 32.5 20.84 31.11 21.63 27.15 14.69 26.46 15.09 30.42 22.03 29.03 22.82 20.31 7.55 23.78 5.57" style="fill:#fff; stroke-width:0px;"/><path d="M20.31,7.55l8.71,15.27,1.39-.79-.38-.67-.69.4-7.95-13.93,2.08-1.19,7.95,13.93-.69.4.38.67,1.39-.79-8.71-15.27-3.47,1.98Z" style="fill:#fff; stroke-width:0px;"/><rect x="19.91" y="5" width="4.79" height="5.64" transform="translate(-.94 12.09) rotate(-29.72)" style="fill:#fff; stroke-width:0px;"/><polygon points="22.99 4.19 18.83 6.56 21.63 11.46 25.79 9.09 22.99 4.19 22.99 4.19" style="fill:#fff; stroke-width:0px;"/><rect x="20.49" y="4.26" width="3.2" height="6.34" transform="translate(-.78 11.93) rotate(-29.72)" style="fill:#fff; stroke-width:0px;"/><polygon points="21.9 3.89 19.13 5.47 22.27 10.98 25.05 9.4 21.9 3.89 21.9 3.89" style="fill:#fff; stroke-width:0px;"/><rect x="18.31" y="3.67" width="3.2" height="6.34" transform="translate(-.77 10.77) rotate(-29.72)" style="fill:#fff; stroke-width:0px;"/><rect x="18.31" y="3.67" width="3.2" height="6.34" transform="translate(-.77 10.77) rotate(-29.72)" style="fill:#fff; stroke-width:0px;"/><rect x="17.22" y="4.54" width="6.39" height="9.59" transform="translate(-1.94 11.35) rotate(-29.72)" style="fill:#fff; stroke-width:0px;"/><path d="M15.26,6.76l4.75,8.33,5.55-3.17-4.75-8.33-5.55,3.17ZM22.86,9.76l-3.33,1.9-1.57-2.75,3.33-1.9,1.57,2.75Z" style="fill:#fff; stroke-width:0px;"/><polygon points="18.24 2.3 18.63 2.99 16.55 4.18 19.32 9.04 18.63 9.44 15.86 4.58 7.53 9.33 10.3 14.19 9.61 14.58 6.84 9.73 3.37 11.71 2.97 11.01 18.24 2.3" style="stroke-width:0px;"/><rect x="2.82" y="11.85" width=".8" height=".8" transform="translate(-5.65 3.21) rotate(-29.72)" style="fill:#fff; stroke-width:0px;"/><polygon points="3.37 11.71 2.67 12.1 3.07 12.8 3.76 12.4 3.37 11.71 3.37 11.71" style="stroke-width:0px;"/><rect x="18.78" y="2.74" width=".8" height=".8" transform="translate(.96 9.92) rotate(-29.72)" style="fill:#fff; stroke-width:0px;"/><polygon points="19.33 2.6 18.63 2.99 19.03 3.69 19.72 3.29 19.33 2.6 19.33 2.6" style="stroke-width:0px;"/><rect x="19.87" y="3.04" width=".8" height=".8" transform="translate(.96 10.5) rotate(-29.72)" style="fill:#fff; stroke-width:0px;"/><polygon points="20.42 2.9 19.72 3.29 20.12 3.99 20.81 3.59 20.42 2.9 20.42 2.9" style="stroke-width:0px;"/><rect x="20.96" y="3.34" width=".8" height=".8" transform="translate(.96 11.08) rotate(-29.72)" style="fill:#fff; stroke-width:0px;"/><polygon points="21.51 3.19 20.81 3.59 21.21 4.28 21.9 3.89 21.51 3.19 21.51 3.19" style="stroke-width:0px;"/><rect x="22.05" y="3.64" width=".8" height=".8" transform="translate(.95 11.66) rotate(-29.72)" style="fill:#fff; stroke-width:0px;"/><polygon points="22.6 3.49 21.9 3.89 22.3 4.58 22.99 4.19 22.6 3.49 22.6 3.49" style="stroke-width:0px;"/><rect x="23.14" y="3.94" width=".8" height=".8" transform="translate(.95 12.24) rotate(-29.72)" style="fill:#fff; stroke-width:0px;"/><polygon points="23.69 3.79 22.99 4.19 23.39 4.88 24.08 4.48 23.69 3.79 23.69 3.79" style="stroke-width:0px;"/><path d="M12.09,7.65l1.98,3.47,2.78-1.58-1.98-3.47-2.78,1.58ZM15.76,9.24l-1.39.79-1.19-2.08,1.39-.79,1.19,2.08Z" style="fill:#fff; stroke-width:0px;"/><path d="M14.86,6.06l-2.78,1.58,1.98,3.47,2.78-1.58-1.98-3.47h0ZM14.37,10.03l-1.19-2.08,1.39-.79,1.19,2.08-1.39.79h0Z" style="stroke-width:0px;"/><rect x="28.39" y="3.13" width=".8" height="17.58" transform="translate(-2.12 15.84) rotate(-29.72)" style="stroke-width:0px;"/><path d="M7.53,9.33l2.77,4.86,8.33-4.75-2.77-4.86-8.33,4.75ZM16.85,9.53l-2.78,1.58-1.98-3.47,2.78-1.58,1.98,3.47Z" style="fill:#fff; stroke-width:0px;"/><rect x="13.67" y="7.39" width="1.6" height="2.4" transform="translate(-2.36 8.3) rotate(-29.72)" style="fill:#fff; stroke-width:0px;"/><rect x="9.87" y="11.76" width="9.59" height=".8" transform="translate(-4.1 8.87) rotate(-29.72)" style="fill:#fff; stroke-width:0px;"/><polygon points="18.63 9.44 10.3 14.19 10.7 14.88 19.03 10.13 18.63 9.44 18.63 9.44" style="stroke-width:0px;"/><rect x="12.07" y="18.1" width="15.18" height=".8" transform="translate(-6.59 12.18) rotate(-29.72)" style="fill:#fff; stroke-width:0px;"/><polygon points="26.06 14.39 12.88 21.92 13.27 22.61 26.46 15.09 26.06 14.39 26.06 14.39" style="stroke-width:0px;"/><rect x="12.72" y="22.76" width=".8" height=".8" transform="translate(-9.75 9.55) rotate(-29.72)" style="fill:#fff; stroke-width:0px;"/><polygon points="13.27 22.61 12.58 23.01 12.97 23.7 13.67 23.31 13.27 22.61 13.27 22.61" style="stroke-width:0px;"/><rect x="7.67" y="11.58" width=".8" height="21.57" transform="translate(-10.02 6.94) rotate(-29.72)" style="fill:#fff; stroke-width:0px;"/><polygon points="3.07 12.8 2.37 13.19 13.07 31.93 13.76 31.53 3.07 12.8 3.07 12.8" style="stroke-width:0px;"/><rect x="32.25" y="19.89" width=".8" height=".8" transform="translate(-5.77 18.85) rotate(-29.72)" style="fill:#fff; stroke-width:0px;"/><polygon points="32.8 19.75 32.1 20.15 32.5 20.84 33.19 20.44 32.8 19.75 32.8 19.75" style="stroke-width:0px;"/><polygon points="32.5 20.84 32.89 21.53 14.16 32.23 13.76 31.53 15.84 30.34 12.28 24.1 12.97 23.7 16.54 29.95 30.42 22.03 26.46 15.09 27.15 14.69 31.11 21.63 32.5 20.84" style="stroke-width:0px;"/></svg>