<?xml version="1.0" encoding="UTF-8"?><svg id="a" xmlns="http://www.w3.org/2000/svg" viewBox="0 0 37 38"><rect x="4" y="5" width="13" height="1" style="fill:#fff; stroke-width:0px;"/><rect x="17" y="6" width="1" height="1" style="fill:#fff; stroke-width:0px;"/><rect x="18" y="7" width="1" height="1" style="fill:#fff; stroke-width:0px;"/><rect x="19" y="8" width="1" height="1" style="fill:#fff; stroke-width:0px;"/><polygon points="20 9 20 12 8 12 8 13 7 13 7 15 6 15 6 20 5 20 5 25 4 25 4 6 17 6 17 7 18 7 18 8 19 8 19 9 20 9" style="fill:#fff; stroke-width:0px;"/><polygon points="32 13 32 16 31 16 31 21 30 21 30 26 29 26 29 31 28 31 28 32 4 32 4 27 5 27 5 25 6 25 6 20 7 20 7 15 8 15 8 13 32 13" style="fill:#fff; stroke-width:0px;"/><polygon points="5 25 5 27 4 27 4 32 3 32 3 6 4 6 4 25 5 25" style="stroke-width:0px;"/><rect x="28" y="31" width="1" height="1" style="fill:#fff; stroke-width:0px;"/><rect x="17" y="6" width="1" height="1" style="stroke-width:0px;"/><rect x="18" y="7" width="1" height="1" style="stroke-width:0px;"/><rect x="19" y="8" width="1" height="1" style="stroke-width:0px;"/><rect x="28" y="31" width="1" height="1" style="stroke-width:0px;"/><rect x="29" y="26" width="1" height="5" style="stroke-width:0px;"/><rect x="4" y="32" width="24" height="1" style="stroke-width:0px;"/><rect x="4" y="5" width="13" height="1" style="stroke-width:0px;"/><rect x="30" y="21" width="1" height="5" style="stroke-width:0px;"/><rect x="31" y="16" width="1" height="5" style="stroke-width:0px;"/><rect x="5" y="20" width="1" height="5" style="stroke-width:0px;"/><rect x="6" y="15" width="1" height="5" style="stroke-width:0px;"/><rect x="7" y="13" width="1" height="2" style="stroke-width:0px;"/><rect x="32" y="13" width="1" height="3" style="stroke-width:0px;"/><polygon points="32 12 32 13 8 13 8 12 20 12 20 9 21 9 21 12 32 12" style="stroke-width:0px;"/></svg>